PathFileType	4	(X/Y/Z)	2014001\dynamic\2014001_C1_05.trc
DataRate	CameraRate	NumFrames	NumMarkers	Units	OrigDataRate	OrigDataStartFrame	OrigNumFrames
100.000000	100.000000	4	52	mm	100.000000	411	549
Frame#	Time	L_IAS			L_IPS			R_IPS			R_IAS			L_FTC			L_FLE			L_FME			L_FAX			L_TTC			L_FAL			L_TAM			L_FCC			L_FM1			L_FM2			L_FM5			R_FTC			R_FLE			R_FME			R_FAX			R_TTC			R_FAL			R_TAM			R_FCC			R_FM1			R_FM2			R_FM5			CV7			TV10			SXS			SJN			L_SIA			L_SRS			L_SAA			L_SAE			L_HLE			L_HME			L_UOA			L_RSP			L_UHE			L_HM2			L_HM5			R_SIA			R_SRS			R_SAA			R_SAE			R_HLE			R_HME			R_UOA			R_RSP			R_UHE			R_HM2			R_HM5			
		X1	Y1	Z1	X2	Y2	Z2	X3	Y3	Z3	X4	Y4	Z4	X5	Y5	Z5	X6	Y6	Z6	X7	Y7	Z7	X8	Y8	Z8	X9	Y9	Z9	X10	Y10	Z10	X11	Y11	Z11	X12	Y12	Z12	X13	Y13	Z13	X14	Y14	Z14	X15	Y15	Z15	X16	Y16	Z16	X17	Y17	Z17	X18	Y18	Z18	X19	Y19	Z19	X20	Y20	Z20	X21	Y21	Z21	X22	Y22	Z22	X23	Y23	Z23	X24	Y24	Z24	X25	Y25	Z25	X26	Y26	Z26	X27	Y27	Z27	X28	Y28	Z28	X29	Y29	Z29	X30	Y30	Z30	X31	Y31	Z31	X32	Y32	Z32	X33	Y33	Z33	X34	Y34	Z34	X35	Y35	Z35	X36	Y36	Z36	X37	Y37	Z37	X38	Y38	Z38	X39	Y39	Z39	X40	Y40	Z40	X41	Y41	Z41	X42	Y42	Z42	X43	Y43	Z43	X44	Y44	Z44	X45	Y45	Z45	X46	Y46	Z46	X47	Y47	Z47	X48	Y48	Z48	X49	Y49	Z49	X50	Y50	Z50	X51	Y51	Z51	X52	Y52	Z52	

412	4.11	346.6972656250001	880.0839843750005	1114.290161132813	279.4383544921876	912.1322631835942	931.053588867188	191.6475219726563	909.2285766601567	928.673217773438	104.3613357543946	873.001098632813	1098.6728515625	409.375915527344	795.252075195313	1048.214721679688	375.8639526367189	446.0472717285159	1125.967651367188	258.6675415039064	441.2276611328127	1136.308349609375	381.3018798828126	382.2995910644532	1118.916381835938	327.6709594726564	373.352508544922	1178.6640625	343.512176513672	63.81106948852542	1135.462768554688	254.0549468994142	74.65493011474612	1154.196655273438	298.1096801757814	22.01290130615235	1093.346069335938	272.5549621582032	25.92481040954591	1272.269165039063	332.5794677734376	39.51522445678712	1281.664306640625	378.0261840820314	28.03351211547853	1228.019653320313	56.10221099853518	786.6960449218755	987.1853027343755	83.08860778808597	452.6892089843752	906.8204956054692	199.3154144287111	430.1004943847659	925.234985351563	79.45915222167972	397.5079040527346	862.3625488281255	124.1507568359376	365.0529785156251	920.0130004882817	119.8330307006837	127.9374771118165	692.873962402344	202.823699951172	128.6453399658204	737.1981201171877	178.6781616210938	111.444938659668	641.942321777344	200.4230804443361	28.98146629333498	798.629028320313	140.2176818847657	36.08288192749025	808.1198730468755	93.77018737792972	29.88540077209474	750.2739868164065	232.5503234863282	1374.757568359375	939.2864379882817	233.4908752441407	1136.45703125	884.8298339843755	240.1874237060548	1149.63623046875	1113.9453125	238.5959625244142	1309.709350585938	1066.074584960938	323.0678710937501	1175.5419921875	873.7813110351567	317.7874755859376	1308.670532226563	890.8832397460942	427.7861938476565	1307.459350585938	959.5659790039067	415.7403869628909	1319.382202148438	1000.932556152344	486.3515930175784	1034.766479492188	955.7710571289067	408.5676879882815	1003.932189941407	936.999877929688	457.0348205566409	1001.72509765625	924.7394409179692	453.486999511719	808.8934936523442	1058.390380859375	515.5767211914065	802.620971679688	1007.8779296875	464.3580322265627	729.1716918945315	1094.195556640625	517.1994628906252	723.8835449218752	1005.590942382813	119.3419570922852	1182.033203125	876.0264282226567	143.079086303711	1306.689819335938	900.960083007813	41.50008392333986	1305.3408203125	981.3805541992192	54.71152496337893	1309.757568359375	1029.994873046875	-20.56344413757325	1007.695190429688	987.1506347656255	54.1602592468262	991.1441040039067	958.056762695313	7.672830104827884	984.6015014648442	955.9902954101567	11.27069282531739	803.1594848632817	1090.373901367188	-53.354606628418	799.6073608398442	1040.657836914063	-10.98425006866455	725.5075683593752	1134.169555664063	-57.48566818237308	720.2662353515627	1040.531372070313	
413	4.12	348.3753967285157	880.4950561523442	1119.419555664063	281.327362060547	912.858032226563	936.157348632813	193.4727935791017	910.0496215820317	933.449096679688	106.0913391113282	873.5010375976567	1103.659912109375	411.0796508789065	795.7888183593755	1053.52587890625	376.6077880859376	446.099792480469	1129.573974609375	259.3970947265626	441.4923400878909	1139.684814453125	381.9619445800782	382.3399658203126	1122.095092773438	328.0984191894532	373.0825500488282	1181.589477539063	343.4334411621095	63.81147384643558	1135.874389648438	253.8851776123048	74.6277770996094	1154.390380859375	298.1173095703126	22.13914871215821	1093.512329101563	272.465545654297	25.74258422851564	1272.420776367188	332.5226440429689	39.43746948242189	1281.989013671875	377.9470520019532	28.1361770629883	1228.208984375	57.84215927124026	787.560668945313	992.097778320313	83.66912841796878	453.917907714844	910.493041992188	199.7428131103517	430.7888183593752	929.0706176757817	79.88416290283206	399.0029602050784	865.7396850585942	124.2505111694337	366.1819763183595	923.3291625976567	119.4577713012696	130.0061187744141	695.1121215820315	202.2675781250001	130.2100982666016	739.4051513671877	178.3592681884766	114.1911544799805	644.255310058594	200.4172363281251	28.96654319763185	798.888549804688	140.2814483642579	35.99650955200197	808.372436523438	93.77459716796878	30.49655342102052	750.9904785156252	234.0687408447267	1375.31494140625	944.0380859375005	235.3439941406251	1136.928466796875	889.881225585938	242.0643615722657	1150.439819335938	1119.029174804688	240.2136230468751	1310.458984375	1070.917236328125	324.959197998047	1176.097778320313	878.9282226562505	319.4614562988282	1309.283447265625	895.7445678710942	429.4531555175784	1308.392944335938	964.5103149414067	417.3238525390627	1320.35693359375	1005.848205566407	488.528015136719	1035.783447265625	961.408569335938	410.8320617675784	1004.78662109375	942.497924804688	459.340026855469	1002.633422851563	930.374633789063	455.7730712890627	810.0227050781255	1064.321899414063	517.9918212890627	803.776245117188	1014.004089355469	466.6249694824221	730.392761230469	1100.280151367188	519.7619628906252	725.044616699219	1011.885498046875	121.0925750732422	1182.330078125	881.0979614257817	144.7094268798829	1307.0263671875	905.805297851563	43.1258010864258	1305.643676757813	986.234985351563	56.37489700317386	1310.169311523438	1034.826293945313	-18.40323448181153	1007.855224609375	993.0298461914067	56.42013931274417	991.2631835937505	964.1637573242192	9.942215919494632	984.6179809570317	962.0319213867192	13.48181915283204	803.807739257813	1097.265014648438	-50.92972946166995	799.9724121093755	1047.541625976563	-8.667735099792484	726.4468383789065	1141.549438476563	-54.94218063354495	720.656921386719	1047.799926757813	
414	4.13	350.0559082031251	880.8835449218755	1124.509521484375	283.2091674804689	913.5773315429692	941.225708007813	195.2724151611329	910.8859252929692	938.1027832031255	107.8170623779297	873.9945678710942	1108.6162109375	412.7732238769534	796.3035278320317	1058.750244140625	377.3731689453126	446.1377563476565	1133.060302734375	260.1550903320314	441.7409973144534	1143.018188476563	382.6373291015626	382.3659973144532	1125.151977539063	328.5880432128907	372.8081665039064	1184.426147460938	343.3739318847657	63.80055236816409	1136.240356445313	253.7438201904298	74.61468505859378	1154.56103515625	298.120574951172	22.244291305542	1093.6533203125	272.400848388672	25.62508392333986	1272.528564453125	332.4562072753907	39.39481735229494	1282.244506835938	377.8661499023439	28.24030494689943	1228.373901367188	59.60790634155276	788.4176635742192	997.0119628906255	84.26555633544925	455.134216308594	914.161743164063	200.187713623047	431.4883422851565	932.909301757813	80.32644653320315	400.4829101562502	869.1250000000005	124.4037017822266	367.2739868164064	926.6611328125005	119.109230041504	132.0462799072266	697.4238891601565	201.7428436279298	131.7279510498047	741.6855468750002	178.0519256591797	116.8856582641602	646.6384277343752	200.4231872558595	28.9457473754883	799.145385742188	140.3344268798829	35.89863204956056	808.6242675781255	93.77693176269534	31.14048004150392	751.7503662109377	235.5838623046876	1375.863403320313	948.779663085938	237.1820373535157	1137.39599609375	894.9080200195317	243.9314880371095	1151.231323242188	1124.100463867188	241.8292694091798	1311.198974609375	1075.74951171875	326.8423156738282	1176.648559570313	884.053588867188	321.1279907226564	1309.881958007813	900.5929565429692	431.1152038574221	1309.301513671875	969.4396362304692	418.9006958007815	1321.308837890625	1010.747802734375	490.7140197753909	1036.781494140625	967.0680541992192	413.1126403808596	1005.612854003907	948.0178222656255	461.658630371094	1003.517395019532	936.0386352539067	458.100524902344	811.142211914063	1070.293334960938	520.4487304687502	804.929809570313	1020.181518554688	468.9552307128909	731.615661621094	1106.431640625	522.379821777344	726.2007446289065	1018.252746582032	122.8208084106446	1182.631225585938	886.1676635742192	146.3263854980469	1307.362426757813	910.648803710938	44.7461624145508	1305.9541015625	991.096313476563	58.03948593139651	1310.586547851563	1039.663452148438	-16.25667381286622	1008.018676757813	998.9415893554692	58.65088653564456	991.3943481445317	970.2622680664067	12.18349266052247	984.6372070312505	968.0927124023442	15.76785850524903	804.480834960938	1104.189819335938	-48.45689773559573	800.3491210937505	1054.509521484375	-6.237289905548099	727.4229736328127	1149.0029296875	-52.34654617309573	721.0668945312502	1055.15771484375	
415	4.14	351.7389221191407	881.2462768554692	1129.555908203125	285.0848388671876	914.287719726563	946.2554321289067	197.0497436523439	911.7344360351567	942.6359863281255	109.5404205322266	874.4793090820317	1113.534301757813	414.4541625976565	796.7876586914067	1063.877807617188	378.1547851562501	446.1571350097659	1136.425048828125	260.9270019531251	441.9642639160159	1146.288818359375	383.3227539062501	382.3742065429689	1128.08837890625	329.1274719238282	372.5281982421876	1187.170043945313	343.326629638672	63.78187179565433	1136.566650390625	253.6233215332032	74.61225128173831	1154.712158203125	298.1192932128907	22.32976341247559	1093.769897460938	272.3504333496095	25.55411338806154	1272.601440429688	332.374481201172	39.37718200683595	1282.441772460938	377.782440185547	28.34681892395021	1228.515991210938	61.39257812500003	789.2595825195317	1001.907409667969	84.87985992431643	456.3345336914065	917.8198852539067	200.6494445800782	432.1961059570315	936.749877929688	80.78899383544925	401.9444885253909	872.5120239257817	124.6099929809571	368.3262634277345	930.0039672851567	118.7915954589844	134.0546417236329	699.802673339844	201.2540740966798	133.1880493164063	744.0412597656252	177.7612915039063	119.5209121704102	649.0871582031252	200.4395599365236	28.92139244079591	799.3966674804692	140.3788146972657	35.78909301757814	808.879028320313	93.7767028808594	31.81427955627443	752.5529785156252	237.0924530029298	1376.39990234375	953.5110473632817	239.0031890869142	1137.856689453125	899.9101562500005	245.7884979248048	1152.006103515625	1129.15625	243.4417724609376	1311.92529296875	1080.571044921875	328.7142028808595	1177.1943359375	889.1499023437505	322.782440185547	1310.463989257813	905.4266967773442	432.7684020996096	1310.183349609375	974.3479003906255	420.4696044921877	1322.236206054688	1015.626037597657	492.9067382812502	1037.759033203125	972.7348022460942	415.4052429199221	1006.409240722657	953.5508422851567	463.9853210449221	1004.373779296875	941.7191772460942	460.4684753417971	812.2582397460942	1076.307495117188	522.9432373046877	806.0813598632817	1026.404663085938	471.3507995605471	732.8459472656252	1112.654418945313	525.0476074218752	727.3521728515627	1024.69140625	124.5260391235352	1182.9326171875	891.2338256835942	147.9283752441407	1307.695190429688	915.4904174804692	46.35941696166994	1306.2685546875	995.9639282226567	59.70256805419925	1311.005126953125	1044.506225585938	-14.13372611999512	1008.183837890625	1004.878173828125	60.83926773071292	991.5356445312505	976.3380737304692	14.38339424133301	984.6579589843755	974.1620483398442	18.13409423828126	805.183959960938	1111.145141601563	-45.94093704223634	800.7374877929692	1061.560180664063	-3.686038970947267	728.4370117187502	1156.522216796875	-49.70155715942386	721.4951171875002	1062.6044921875	
